HIERARCHY
ROOT hip
{
	OFFSET	0.00  0.00  0.00 
	CHANNELS 6 Xposition Yposition Zposition Xrotation Zrotation Yrotation
	JOINT abdomen
	{
		OFFSET	0.000000 3.402643 0.000000
		CHANNELS 3 Xrotation Zrotation Yrotation
		JOINT chest
		{
			OFFSET	0.000000 8.438564 -0.680529
			CHANNELS 3 Xrotation Zrotation Yrotation
			JOINT neck
			{
				OFFSET	0.000000 10.207942 -0.272212
				CHANNELS 3 Xrotation Zrotation Yrotation
				JOINT head
				{
					OFFSET	0.000000 3.130431 0.000000
					CHANNELS 3 Xrotation Zrotation Yrotation
					End Site
					{
						OFFSET 0.000000 3.130435 0.000000
					}
				}
			}
			JOINT lCollar
			{
				OFFSET	3.402647 6.669187 -0.816635
				CHANNELS 3 Yrotation Zrotation Xrotation
				JOINT lShldr
				{
					OFFSET	3.266541 0.000000 0.000000
					CHANNELS 3 Zrotation Yrotation Xrotation
					JOINT lForeArm
					{
						OFFSET	10.071835 0.000000 0.000000
						CHANNELS 3 Yrotation Zrotation Xrotation
						JOINT lHand
						{
							OFFSET	8.438563 0.000000 0.000000
							CHANNELS 3 Zrotation Yrotation Xrotation
							End Site
							{
								OFFSET 4.083176 0.000000 0.000000
							}
						}
					}
				}
			}
			JOINT rCollar
			{
				OFFSET	-3.538753 6.669187 -0.816635
				CHANNELS 3 Yrotation Zrotation Xrotation
				JOINT rShldr
				{
					OFFSET	-3.130435 0.000000 0.000000
					CHANNELS 3 Zrotation Yrotation Xrotation
					JOINT rForeArm
					{
						OFFSET	-10.207940 0.000000 0.000000
						CHANNELS 3 Yrotation Zrotation Xrotation
						JOINT rHand
						{
							OFFSET	-8.302459 0.000000 0.000000
							CHANNELS 3 Zrotation Yrotation Xrotation
							End Site
							{
								OFFSET -4.083176 0.000000 0.000000
							}
						}
					}
				}
			}
		}
	}
	JOINT lThigh
	{
		OFFSET	5.308129 -1.633274 1.361059
		CHANNELS 3 Xrotation Zrotation Yrotation
		JOINT lShin
		{
			OFFSET	-2.041588 -20.007561 0.000000
			CHANNELS 3 Xrotation Zrotation Yrotation
			JOINT lFoot
			{
				OFFSET	0.000000 -19.190928 -1.224953
				CHANNELS 3 Xrotation Yrotation Zrotation
				End Site
				{
					OFFSET 0.000000 -2.449905 4.627600
				}
			}
		}
	}
	JOINT rThigh
	{
		OFFSET	-5.308129 -1.633274 1.361059
		CHANNELS 3 Xrotation Zrotation Yrotation
		JOINT rShin
		{
			OFFSET	2.041588 -20.007561 0.000000
			CHANNELS 3 Xrotation Zrotation Yrotation
			JOINT rFoot
			{
				OFFSET	0.000000 -19.190928 -1.224953
				CHANNELS 3 Xrotation Yrotation Zrotation
				End Site
				{
					OFFSET 0.000000 -2.449905 4.627600
				}
			}
		}
	}
	JOINT cyl_1
	{
		OFFSET	0.000000 0.000000 0.000000
		CHANNELS 3 Xrotation Zrotation Yrotation
		End Site
		{
			OFFSET 0.000000 -2.858223 0.000000
		}
	}
}
MOTION
Frames:     14
Frame Time: 0.033333
0.000000 46.200199 0.000000 0.000000 0.000000 0.000000 -0.341797 0.000000 0.000000 -0.429804 0.000000 -0.449113 0.000000 0.000000 0.000000 0.000000 0.000000 0.000000 0.281988 -8.000000 -0.002729 0.000000 -4.000000 0.000000 -8.000000 0.000000 0.000000 -7.000000 0.000000 0.000000 0.000000 8.000000 -0.194249 -0.260207 4.000000 -0.449221 8.000000 0.000000 0.000000 7.000000 0.000000 0.000000 -5.121420 4.965990 0.036196 10.211700 -1.980570 -0.079563 13.613300 2.331480 5.490040 -5.122600 -5.419650 -0.144222 10.347700 2.290680 0.119386 14.681200 -1.728550 -5.011670 0.000000 0.000000 0.000000 
-0.485507 41.395279 0.000000 5.305040 -2.886860 -0.499261 6.189390 -0.581390 -2.688420 18.637400 6.960790 -5.669850 -0.010540 -3.672490 0.001334 -11.170500 -0.030678 9.694680 -1.152974 1.894148 -0.352531 -78.908798 -12.480800 21.732100 -81.911201 -0.151374 41.861900 13.418800 -4.946010 -4.002340 -7.454414 -1.684866 1.723035 65.631104 -12.225900 13.784100 51.464802 0.355802 27.754900 -12.355900 1.783260 -3.916600 3.805660 11.112900 15.529200 86.325500 -0.187199 -1.337590 28.101187 1.332796 8.517846 -18.800800 11.019800 -8.673580 -6.414160 -3.028600 -2.231290 4.664541 4.476630 2.918802 0.000000 0.000000 0.000000 
-0.721296 41.055264 0.000000 6.090530 -3.178010 -1.320410 6.111530 -0.294236 -0.460162 17.449800 7.508440 -3.899450 -0.010540 -4.394300 -0.062221 -10.369400 -0.538755 7.686210 0.595764 -0.820268 -0.088988 -74.264099 -5.344990 21.391001 -76.110397 -0.154512 29.091700 9.251530 -2.694130 -3.919620 -3.691464 0.321597 1.524654 61.640999 -0.106172 11.362700 57.866699 0.355802 27.713600 -10.196900 -0.878990 -5.401500 -2.780990 12.002400 15.178300 94.042801 -0.760129 -1.271970 23.579306 5.645886 8.812160 -25.419500 9.826990 -9.467090 19.454000 -1.619440 -2.631200 -0.908927 2.753593 -6.863466 0.000000 0.000000 0.000000 
-0.992400 40.667904 0.000000 7.038550 -3.496460 -2.413630 5.993490 0.023798 2.254380 16.042200 8.115950 -1.730010 -0.010540 -5.219240 -0.136702 -9.405430 -1.135120 5.255850 2.711431 -3.921400 0.488535 -68.892197 3.143020 20.965200 -69.249397 -0.158064 14.350800 4.416300 -0.007269 -3.823440 0.840740 2.646200 0.898272 56.930901 14.215700 8.423110 65.470596 0.355802 27.670601 -7.599750 -3.946150 -7.114110 -10.694000 13.064000 14.823900 103.136002 -1.436870 -1.190920 19.020218 9.952394 9.152002 -25.624001 10.822200 -9.146930 34.336201 -2.044390 -2.276380 -11.411146 3.323828 -7.121699 0.000000 0.000000 0.000000 
-1.146216 40.484406 0.000000 8.031700 -3.511640 -4.546260 5.637220 0.081242 5.342090 14.817600 8.235790 0.858952 -0.010540 -5.636930 -0.193236 -8.423220 -1.597150 2.622040 4.935595 -5.584815 1.653949 -65.523201 10.834400 20.382799 -63.414902 -0.159527 5.398000 1.228300 2.508510 -3.758110 5.608976 3.936202 -0.464815 53.016800 26.270399 5.178210 72.250801 0.355802 27.692600 -4.960590 -5.749150 -8.139700 -18.631500 14.060900 15.119700 110.530998 -2.003480 -1.087950 14.406264 14.241590 9.552142 -19.709200 12.228600 -7.696450 35.328602 -3.281730 -1.334310 -21.908203 3.893357 -7.380673 0.000000 0.000000 0.000000 
-1.065919 40.706394 0.000000 9.010650 -2.958700 -8.375930 4.872360 -0.349323 8.814780 14.048400 7.433320 3.981550 -0.010540 -5.248850 -0.211354 -7.510820 -1.768190 -0.132883 7.110812 -4.389936 3.399284 -66.150101 16.306101 19.608299 -60.059898 -0.157227 7.921890 1.372530 4.482500 -3.755730 10.308729 3.151524 -2.389531 51.007099 32.975300 1.699690 76.925598 0.355802 27.814100 -2.571070 -5.025230 -7.790890 -25.905399 14.814400 16.581200 113.829002 -2.300110 -0.933223 12.580049 13.622266 10.773487 -11.655100 11.342600 -5.669760 28.554600 -3.427780 -0.342985 -22.485807 5.864682 -8.394403 0.000000 0.000000 0.000000 
-0.810615 41.260303 0.000000 9.887790 -2.010620 -13.007200 3.863620 -1.099180 12.237000 13.666900 5.984350 7.269540 -0.010540 -4.245490 -0.201460 -6.771830 -1.725680 -2.722280 9.112903 -1.060663 5.150746 -69.430199 19.695601 18.981800 -58.872398 -0.153708 18.031700 3.794160 5.993680 -3.796880 14.513246 0.822502 -4.177870 50.833698 35.290298 -1.560940 80.076401 0.355802 27.898899 -0.950358 -2.456710 -6.452610 -32.397999 15.181300 18.717400 112.601997 -2.314680 -0.640460 11.719412 12.953362 12.980355 -3.175070 8.558910 -3.333870 18.560600 -2.570840 0.505572 -12.163074 9.588654 -10.411520 0.000000 0.000000 0.000000 
-0.483396 42.003807 0.000000 10.568500 -0.949822 -17.156200 2.859450 -1.900560 15.061700 13.520500 4.342330 10.234100 -0.010540 -2.964610 -0.181676 -6.313730 -1.605590 -4.870480 10.837146 3.174892 6.482251 -73.187103 21.530600 18.937099 -59.098900 -0.152570 29.441700 6.753420 7.233460 -3.849270 17.816236 -2.194272 -5.339709 52.134499 35.185501 -4.057210 82.750900 0.355802 27.767900 -0.674485 0.787826 -4.777890 -38.134201 15.027600 20.785700 106.911003 -2.072060 -0.109287 10.155826 12.313426 14.490685 4.584420 5.046460 -0.883977 9.498580 -1.297200 1.105830 3.289043 13.077327 -12.407210 0.000000 0.000000 0.000000 
-0.187354 42.794529 0.000000 10.958000 -0.058733 -19.539200 2.108290 -2.485730 16.741501 13.456500 2.960700 12.386300 -0.010540 -1.743960 -0.170123 -6.244000 -1.543880 -6.549970 12.175212 7.113443 7.141108 -75.244301 22.338900 19.908300 -59.986198 -0.157413 35.866299 8.510520 8.393230 -3.880600 19.799067 -5.119668 -5.737608 54.547100 34.631401 -5.242640 85.996201 0.355802 27.242100 -2.319500 3.539810 -3.419740 -43.139000 14.219100 22.043600 96.820503 -1.597120 0.760673 6.190850 11.798329 13.603172 10.476700 1.974370 1.484700 5.520680 -0.193149 1.352250 17.640625 14.468273 -13.200699 0.000000 0.000000 0.000000 
-0.001598 43.497841 0.000000 10.998300 0.451470 -19.244101 1.775580 -2.667270 16.910200 13.371700 2.182660 13.386000 -0.010540 -0.843165 -0.180074 -6.627270 -1.640940 -7.835070 12.997375 9.844083 7.115010 -74.092796 22.593901 22.117599 -60.818100 -0.171065 33.095501 7.828830 9.610780 -3.867690 20.175381 -7.402836 -5.502323 57.681099 35.026402 -4.837600 90.461899 0.355802 26.264099 -6.139280 4.946910 -2.868130 -47.231800 12.641600 21.904800 82.559303 -0.940246 1.996830 -0.752084 8.977115 9.185719 13.694600 0.225944 3.546860 9.545360 0.311142 1.189880 25.923983 12.525528 -11.929367 0.000000 0.000000 0.000000 
0.090669 44.009949 0.000000 10.777700 0.654605 -16.845600 1.694640 -2.579140 15.924800 13.360700 1.910460 13.487700 -0.010540 -0.209368 -0.205407 -7.356710 -1.854780 -8.959250 13.294910 11.413030 6.667435 -70.893898 22.552601 24.941299 -61.027302 -0.193278 25.222500 5.484270 10.809400 -3.823820 19.360092 -9.019857 -4.902762 61.032200 35.482899 -3.629710 95.205597 0.355802 25.262501 -11.099100 5.421750 -2.960760 -49.410198 10.261100 20.407700 65.025200 -0.253928 3.334730 -9.149799 2.858091 2.727548 14.789000 -0.458453 4.956800 19.556900 0.409950 0.766041 28.917645 8.346316 -9.349109 0.000000 0.000000 0.000000 
0.130224 44.234760 0.000000 10.420800 0.695739 -13.289900 1.615770 -2.435650 14.323600 13.567600 1.936120 13.094200 -0.010540 0.288410 -0.235154 -8.282620 -2.107850 -10.195800 13.159972 12.124464 6.084162 -67.475998 22.417700 27.543900 -60.083698 -0.223032 18.416100 2.755910 11.858800 -3.771370 17.985624 -9.967698 -4.097737 64.068100 35.001598 -2.673440 98.886703 0.355802 24.787600 -15.841900 5.693210 -3.372270 -48.466499 7.063370 17.747101 45.282700 0.283819 4.436960 -16.778614 -3.545528 -4.119147 14.650100 -0.624198 5.338720 32.306000 0.453670 0.278637 28.662329 3.696939 -6.488784 0.000000 0.000000 0.000000 
0.157845 44.076195 0.000000 10.052600 0.719940 -9.523400 1.289270 -2.451120 12.644600 14.136400 2.051650 12.608800 -0.010540 0.781145 -0.258345 -9.255330 -2.322570 -11.817900 12.695213 12.232326 5.587651 -65.667900 22.392099 29.090099 -57.457199 -0.259307 18.845501 0.922801 12.628700 -3.732740 16.699524 -10.242753 -3.165376 66.256203 34.425098 -3.023250 100.165001 0.355802 25.389700 -19.010799 6.490180 -3.777320 -43.192902 3.034390 14.117600 24.396200 0.494981 4.966090 -19.475315 -7.041819 -9.958363 14.168200 -0.816666 4.316850 44.543400 0.792694 -0.074432 26.605312 0.448002 -4.218926 0.000000 0.000000 0.000000 
0.211100 43.496086 0.000000 9.777430 0.864976 -6.352000 0.566916 -2.806780 11.328700 15.124200 2.098240 12.283600 -0.010540 1.380350 -0.267092 -10.132800 -2.437710 -13.871100 11.919701 11.894033 5.340008 -66.584297 22.563601 28.968300 -53.088402 -0.300606 29.855200 0.747202 13.017600 -3.723630 15.922545 -9.811902 -2.206034 67.243301 34.454899 -5.174650 98.230202 0.355802 27.275700 -19.626600 8.161410 -3.928900 -34.409199 -1.408430 10.122900 5.088490 0.462865 4.704530 -12.576251 -6.213835 -9.459530 13.855000 -1.504680 1.732730 53.969898 1.629240 -0.160300 23.698971 -0.039000 -3.232421 0.000000 0.000000 0.000000 
